<svg width="30" height="30" viewBox="0 0 30 30" fill="none" xmlns="http://www.w3.org/2000/svg">
<path d="M16.25 27.5H11.25C10.9185 27.5 10.6005 27.3683 10.3661 27.1339C10.1317 26.8995 10 26.5815 10 26.25V18.5H7.5C7.16848 18.5 6.85054 18.3683 6.61612 18.1339C6.3817 17.8995 6.25 17.5815 6.25 17.25V12.75C6.25 12.4185 6.3817 12.1005 6.61612 11.8661C6.85054 11.6317 7.16848 11.5 7.5 11.5H10V9.375C10.0876 7.47045 10.9258 5.67806 12.3312 4.38974C13.7367 3.10142 15.595 2.42199 17.5 2.5H21.25C21.5815 2.5 21.8995 2.6317 22.1339 2.86612C22.3683 3.10054 22.5 3.41848 22.5 3.75V8.25C22.5 8.58152 22.3683 8.89947 22.1339 9.13389C21.8995 9.36831 21.5815 9.5 21.25 9.5H17.5V11.5H21.25C21.443 11.4985 21.6337 11.5418 21.8072 11.6264C21.9807 11.711 22.1323 11.8346 22.25 11.9875C22.3664 12.1427 22.4451 12.323 22.4798 12.5139C22.5146 12.7048 22.5043 12.9012 22.45 13.0875L21.2 17.5875C21.1244 17.8579 20.96 18.0949 20.7332 18.2605C20.5064 18.426 20.2306 18.5104 19.95 18.5H17.5V26.25C17.5 26.5815 17.3683 26.8995 17.1339 27.1339C16.8995 27.3683 16.5815 27.5 16.25 27.5ZM12.5 25H15V17.25C15 16.9185 15.1317 16.6005 15.3661 16.3661C15.6005 16.1317 15.9185 16 16.25 16H19.05L19.6 14H16.25C15.9185 14 15.6005 13.8683 15.3661 13.6339C15.1317 13.3995 15 13.0815 15 12.75V9.375C15.0321 8.73387 15.3096 8.12964 15.775 7.6875C16.2404 7.24537 16.8581 6.9992 17.5 7H20V5H17.5C16.2585 4.92437 15.0373 5.34129 14.1012 6.16033C13.1652 6.97937 12.5898 8.13446 12.5 9.375V12.75C12.5 13.0815 12.3683 13.3995 12.1339 13.6339C11.8995 13.8683 11.5815 14 11.25 14H8.75V16H11.25C11.5815 16 11.8995 16.1317 12.1339 16.3661C12.3683 16.6005 12.5 16.9185 12.5 17.25V25Z" fill="#DD7F7A"/>
</svg>
