<svg width="1440" height="362" viewBox="0 0 1440 362" fill="none" xmlns="http://www.w3.org/2000/svg">
<rect x="0.528076" y="0.530273" width="119.962" height="119.962" fill="#D1534C" fill-opacity="0.05"/>
<rect x="480.077" y="0.530273" width="119.962" height="119.962" fill="#D1534C" fill-opacity="0.05"/>
<rect x="959.625" y="0.530273" width="119.962" height="119.962" fill="#D1534C" fill-opacity="0.05"/>
<rect x="240.451" y="0.530273" width="119.962" height="119.962" fill="#D1534C" fill-opacity="0.05"/>
<rect x="720" y="0.530273" width="119.962" height="119.962" fill="#D1534C" fill-opacity="0.05"/>
<rect x="1199.55" y="0.530273" width="119.962" height="119.962" fill="#D1534C" fill-opacity="0.05"/>
<rect x="180.734" y="0.265625" width="85.199" height="85.199" transform="rotate(45 180.734 0.265625)" fill="#D1534C" fill-opacity="0.05"/>
<rect x="660.283" y="0.265625" width="85.199" height="85.199" transform="rotate(45 660.283 0.265625)" fill="#D1534C" fill-opacity="0.05"/>
<rect x="1139.83" y="0.265625" width="85.199" height="85.199" transform="rotate(45 1139.83 0.265625)" fill="#D1534C" fill-opacity="0.05"/>
<rect x="420.658" y="0.265625" width="85.199" height="85.199" transform="rotate(45 420.658 0.265625)" fill="#D1534C" fill-opacity="0.05"/>
<rect x="900.207" y="0.265625" width="85.199" height="85.199" transform="rotate(45 900.207 0.265625)" fill="#D1534C" fill-opacity="0.05"/>
<rect x="1379.76" y="0.265625" width="85.199" height="85.199" transform="rotate(45 1379.76 0.265625)" fill="#D1534C" fill-opacity="0.05"/>
<rect x="0.528076" y="241.509" width="119.962" height="119.962" fill="#D1534C" fill-opacity="0.05"/>
<rect x="480.077" y="241.509" width="119.962" height="119.962" fill="#D1534C" fill-opacity="0.05"/>
<rect x="959.625" y="241.509" width="119.962" height="119.962" fill="#D1534C" fill-opacity="0.05"/>
<rect x="240.451" y="241.509" width="119.962" height="119.962" fill="#D1534C" fill-opacity="0.05"/>
<rect x="720" y="241.509" width="119.962" height="119.962" fill="#D1534C" fill-opacity="0.05"/>
<rect x="1199.55" y="241.509" width="119.962" height="119.962" fill="#D1534C" fill-opacity="0.05"/>
<rect x="180.734" y="241.245" width="85.199" height="85.199" transform="rotate(45 180.734 241.245)" fill="#D1534C" fill-opacity="0.05"/>
<rect x="660.283" y="241.245" width="85.199" height="85.199" transform="rotate(45 660.283 241.245)" fill="#D1534C" fill-opacity="0.05"/>
<rect x="1139.83" y="241.245" width="85.199" height="85.199" transform="rotate(45 1139.83 241.245)" fill="#D1534C" fill-opacity="0.05"/>
<rect x="420.658" y="241.245" width="85.199" height="85.199" transform="rotate(45 420.658 241.245)" fill="#D1534C" fill-opacity="0.05"/>
<rect x="900.207" y="241.245" width="85.199" height="85.199" transform="rotate(45 900.207 241.245)" fill="#D1534C" fill-opacity="0.05"/>
<rect x="1379.76" y="241.245" width="85.199" height="85.199" transform="rotate(45 1379.76 241.245)" fill="#D1534C" fill-opacity="0.05"/>
<rect x="359.588" y="121.021" width="119.962" height="119.962" fill="#D1534C" fill-opacity="0.05"/>
<rect x="839.136" y="121.021" width="119.962" height="119.962" fill="#D1534C" fill-opacity="0.05"/>
<rect x="1318.68" y="121.021" width="119.962" height="119.962" fill="#D1534C" fill-opacity="0.05"/>
<rect x="119.962" y="121.021" width="119.962" height="119.962" fill="#D1534C" fill-opacity="0.05"/>
<rect x="599.511" y="121.021" width="119.962" height="119.962" fill="#D1534C" fill-opacity="0.05"/>
<rect x="1079.06" y="121.021" width="119.962" height="119.962" fill="#D1534C" fill-opacity="0.05"/>
<rect x="60.2449" y="120.755" width="85.199" height="85.199" transform="rotate(45 60.2449 120.755)" fill="#D1534C" fill-opacity="0.05"/>
<rect x="539.794" y="120.755" width="85.199" height="85.199" transform="rotate(45 539.794 120.755)" fill="#D1534C" fill-opacity="0.05"/>
<rect x="1019.34" y="120.755" width="85.199" height="85.199" transform="rotate(45 1019.34 120.755)" fill="#D1534C" fill-opacity="0.05"/>
<rect x="300.168" y="120.755" width="85.199" height="85.199" transform="rotate(45 300.168 120.755)" fill="#D1534C" fill-opacity="0.05"/>
<rect x="779.717" y="120.755" width="85.199" height="85.199" transform="rotate(45 779.717 120.755)" fill="#D1534C" fill-opacity="0.05"/>
<rect x="1259.27" y="120.755" width="85.199" height="85.199" transform="rotate(45 1259.27 120.755)" fill="#D1534C" fill-opacity="0.05"/>
</svg>
