<svg width="30" height="30" viewBox="0 0 30 30" fill="none" xmlns="http://www.w3.org/2000/svg">
<path d="M25 27.5H22.9125C22.2495 27.5 21.6136 27.2366 21.1447 26.7678C20.6759 26.2989 20.4125 25.663 20.4125 25V18.2875C20.4237 18.0242 20.3441 17.7651 20.1871 17.5535C20.0301 17.3419 19.8052 17.1906 19.55 17.125C19.4015 17.1024 19.25 17.1119 19.1055 17.1529C18.961 17.1938 18.827 17.2653 18.7125 17.3625C18.5947 17.4625 18.5001 17.587 18.4353 17.7273C18.3705 17.8677 18.3372 18.0204 18.3375 18.175V25C18.3375 25.663 18.0741 26.2989 17.6053 26.7678C17.1364 27.2366 16.5005 27.5 15.8375 27.5H13.75C13.087 27.5 12.4511 27.2366 11.9822 26.7678C11.5134 26.2989 11.25 25.663 11.25 25V18.175C11.25 16.0201 12.106 13.9535 13.6298 12.4298C15.1535 10.906 17.2201 10.05 19.375 10.05C21.5299 10.05 23.5965 10.906 25.1202 12.4298C26.644 13.9535 27.5 16.0201 27.5 18.175V25C27.5 25.663 27.2366 26.2989 26.7678 26.7678C26.2989 27.2366 25.663 27.5 25 27.5ZM19.375 14.6125C19.5706 14.6002 19.7669 14.6002 19.9625 14.6125C20.8017 14.7739 21.5573 15.2257 22.0967 15.8885C22.6361 16.5514 22.925 17.383 22.9125 18.2375V25H25V18.175C25 16.6832 24.4074 15.2524 23.3525 14.1975C22.2976 13.1426 20.8668 12.55 19.375 12.55C17.8832 12.55 16.4524 13.1426 15.3975 14.1975C14.3426 15.2524 13.75 16.6832 13.75 18.175V25H15.8375V18.175C15.8375 17.2345 16.2094 16.3321 16.8721 15.6647C17.5348 14.9973 18.4345 14.6191 19.375 14.6125ZM7.5 27.5H5C4.33696 27.5 3.70108 27.2366 3.23223 26.7678C2.76339 26.2989 2.5 25.663 2.5 25V12.5C2.5 11.837 2.76339 11.2011 3.23223 10.7322C3.70108 10.2634 4.33696 10 5 10H7.5C8.16304 10 8.79893 10.2634 9.26777 10.7322C9.73661 11.2011 10 11.837 10 12.5V25C10 25.663 9.73661 26.2989 9.26777 26.7678C8.79893 27.2366 8.16304 27.5 7.5 27.5ZM5 12.5V25H7.5V12.5H5ZM6.25 8.75C5.50832 8.75 4.7833 8.53007 4.16661 8.11801C3.54993 7.70596 3.06928 7.12029 2.78545 6.43506C2.50162 5.74984 2.42736 4.99584 2.57206 4.26841C2.71675 3.54098 3.0739 2.8728 3.59835 2.34835C4.1228 1.8239 4.79098 1.46675 5.51841 1.32206C6.24584 1.17736 6.99984 1.25162 7.68506 1.53545C8.37029 1.81928 8.95596 2.29993 9.36801 2.91661C9.78007 3.5333 10 4.25832 10 5C10 5.99456 9.60491 6.94839 8.90165 7.65165C8.19839 8.35491 7.24456 8.75 6.25 8.75ZM6.25 3.75C6.00278 3.75 5.7611 3.82331 5.55554 3.96066C5.34998 4.09802 5.18976 4.29324 5.09515 4.52165C5.00054 4.75006 4.97579 5.00139 5.02402 5.24386C5.07225 5.48634 5.1913 5.70907 5.36612 5.88388C5.54093 6.0587 5.76366 6.17775 6.00614 6.22598C6.24862 6.27422 6.49995 6.24946 6.72836 6.15485C6.95676 6.06024 7.15199 5.90003 7.28934 5.69446C7.42669 5.4889 7.5 5.24723 7.5 5C7.5 4.66848 7.36831 4.35054 7.13388 4.11612C6.89946 3.8817 6.58152 3.75 6.25 3.75Z" fill="#DD7F7A"/>
</svg>
